<svg id="Capa_1" data-name="Capa 1" xmlns="http://www.w3.org/2000/svg" viewBox="0 0 512.01 425.75" fill="#4F46E580"><defs><style>.cls-2{isolation:isolate;opacity:.1}</style></defs><path d="M508.7 354.3 264.6 251.4a22.3 22.3 0 0 0-17.2 0L3.3 354.3a5.29 5.29 0 0 0 0 9.8l244.1 103a22.55 22.55 0 0 0 17.3 0l244.1-103a5.31 5.31 0 0 0-.1-9.8Z" transform="translate(0 -43.07)"></path><path class="cls-2" d="m508.7 364.1-244.1 103a22.55 22.55 0 0 1-17.3 0l-12-5.1 232.1-97.9a5.29 5.29 0 0 0 0-9.8l-232.1-97.8 12-5.1a22.3 22.3 0 0 1 17.2 0l244.1 102.9a5.27 5.27 0 0 1 .1 9.8Z" transform="translate(0 -43.07)"></path><path d="M508.7 252.9 264.6 150a22.3 22.3 0 0 0-17.2 0L3.3 252.9a5.29 5.29 0 0 0 0 9.8l244.1 103a22.55 22.55 0 0 0 17.3 0l244.1-103a5.31 5.31 0 0 0-.1-9.8Z" transform="translate(0 -43.07)"></path><path class="cls-2" d="m508.7 262.7-244.1 103a22.55 22.55 0 0 1-17.3 0l-12-5.1 232.1-97.9a5.29 5.29 0 0 0 0-9.8l-232.1-97.8 12-5.1a22.3 22.3 0 0 1 17.2 0l244.1 102.9a5.27 5.27 0 0 1 .1 9.8Z" transform="translate(0 -43.07)"></path><path d="M508.7 147.8 264.6 44.9a22.3 22.3 0 0 0-17.2 0L3.3 147.8a5.29 5.29 0 0 0 0 9.8l244.1 103a22.55 22.55 0 0 0 17.3 0l244.1-103a5.31 5.31 0 0 0-.1-9.8Z" transform="translate(0 -43.07)"></path><path class="cls-2" d="m508.7 157.6-244.1 103a22.55 22.55 0 0 1-17.3 0l-12-5.1 232.1-97.9a5.29 5.29 0 0 0 0-9.8l-232-97.9 12-5.1a22.3 22.3 0 0 1 17.2 0l244.1 102.9a5.36 5.36 0 0 1 0 9.9Z" transform="translate(0 -43.07)"></path></svg>